<svg width="56" height="56" viewBox="0 0 56 56" fill="none" xmlns="http://www.w3.org/2000/svg">
<circle cx="28" cy="28" r="27.8" fill="white" fill-opacity="0.2" stroke="white" stroke-width="0.4"/>
<path fill-rule="evenodd" clip-rule="evenodd" d="M45.103 50.1719C39.9175 52.6281 34.1195 54.0021 28.0005 54.0021C21.8904 54.0021 16.1004 52.6321 10.9207 50.1826C15.6481 53.8284 21.5732 55.9969 28.0049 55.9969C34.4428 55.9969 40.3733 53.8241 45.103 50.1719Z" fill="white" fill-opacity="0.8"/>
<path d="M28 52L30.5981 47.5H25.4019L28 52Z" fill="white"/>
<g filter="url(#filter0_d_1689_13000)">
<path d="M32.8299 16H23.1699C19.8562 16 17.1699 18.6863 17.1699 22L17.1699 34C17.1699 37.3137 19.8562 40 23.1699 40H32.8299C36.1436 40 38.8299 37.3137 38.8299 34L38.8299 22C38.8299 18.6863 36.1436 16 32.8299 16Z" fill="#D8AF8B"/>
<path d="M23.9601 35.9219H23.8501C23.585 35.9219 23.3701 36.1368 23.3701 36.4019V38.3619C23.3701 38.627 23.585 38.8419 23.8501 38.8419H23.9601C24.2252 38.8419 24.4401 38.627 24.4401 38.3619V36.4019C24.4401 36.1368 24.2252 35.9219 23.9601 35.9219Z" fill="#231815"/>
<path d="M32.1501 35.9219H32.0401C31.775 35.9219 31.5601 36.1368 31.5601 36.4019V38.3619C31.5601 38.627 31.775 38.8419 32.0401 38.8419H32.1501C32.4152 38.8419 32.6301 38.627 32.6301 38.3619V36.4019C32.6301 36.1368 32.4152 35.9219 32.1501 35.9219Z" fill="#231815"/>
<path d="M34.08 35.17L21.92 35.17C20.967 35.1692 20.0301 34.9242 19.1986 34.4586C18.3671 33.993 17.6687 33.3221 17.17 32.51V34.28C17.17 34.28 16.35 33.1 16.35 29.6V21.6C16.3447 20.8657 16.485 20.1375 16.7626 19.4577C17.0403 18.7778 17.4499 18.1597 17.9678 17.6391C18.4857 17.1184 19.1016 16.7055 19.7799 16.4241C20.4583 16.1428 21.1856 15.9987 21.92 16L39.65 16V29.6C39.67 31.217 39.392 32.8237 38.83 34.34L38.83 32.51C38.3313 33.3221 37.6329 33.993 36.8014 34.4586C35.9699 34.9242 35.033 35.1692 34.08 35.17Z" fill="#FFB600"/>
</g>
<defs>
<filter id="filter0_d_1689_13000" x="8.34985" y="8" width="39.3013" height="40" filterUnits="userSpaceOnUse" color-interpolation-filters="sRGB">
<feFlood flood-opacity="0" result="BackgroundImageFix"/>
<feColorMatrix in="SourceAlpha" type="matrix" values="0 0 0 0 0 0 0 0 0 0 0 0 0 0 0 0 0 0 127 0" result="hardAlpha"/>
<feOffset/>
<feGaussianBlur stdDeviation="4"/>
<feComposite in2="hardAlpha" operator="out"/>
<feColorMatrix type="matrix" values="0 0 0 0 0 0 0 0 0 0 0 0 0 0 0 0 0 0 0.25 0"/>
<feBlend mode="normal" in2="BackgroundImageFix" result="effect1_dropShadow_1689_13000"/>
<feBlend mode="normal" in="SourceGraphic" in2="effect1_dropShadow_1689_13000" result="shape"/>
</filter>
</defs>
</svg>
